<svg xmlns="http://www.w3.org/2000/svg" viewBox="0 0 100 100">
<circle cx="50" cy="50" r="46" fill="#efe8d8"/>
<circle cx="50" cy="50" r="45" fill="none" stroke="#191512" stroke-width="1.5" stroke-opacity="0.40"/>
<line x1="59.5" y1="24.4" x2="38.2" y2="37.8" stroke="#191512" stroke-width="1.3" stroke-opacity="0.278"/>
<line x1="59.5" y1="24.4" x2="75.9" y2="29.6" stroke="#191512" stroke-width="1.3" stroke-opacity="0.364"/>
<line x1="45.6" y1="17.9" x2="23.0" y2="31.8" stroke="#191512" stroke-width="1.3" stroke-opacity="0.455"/>
<line x1="45.6" y1="17.9" x2="60.7" y2="31.9" stroke="#191512" stroke-width="1.3" stroke-opacity="0.516"/>
<line x1="38.2" y1="37.8" x2="62.3" y2="52.3" stroke="#191512" stroke-width="1.3" stroke-opacity="0.242"/>
<line x1="38.2" y1="37.8" x2="21.0" y2="54.5" stroke="#191512" stroke-width="1.3" stroke-opacity="0.289"/>
<line x1="75.9" y1="29.6" x2="81.9" y2="55.2" stroke="#191512" stroke-width="1.3" stroke-opacity="0.401"/>
<line x1="23.0" y1="31.8" x2="32.3" y2="44.6" stroke="#191512" stroke-width="1.3" stroke-opacity="0.519"/>
<line x1="62.3" y1="52.3" x2="44.9" y2="72.0" stroke="#191512" stroke-width="1.3" stroke-opacity="0.255"/>
<line x1="60.7" y1="31.9" x2="73.3" y2="55.7" stroke="#191512" stroke-width="1.3" stroke-opacity="0.566"/>
<line x1="21.0" y1="54.5" x2="22.8" y2="66.1" stroke="#191512" stroke-width="1.3" stroke-opacity="0.403"/>
<line x1="81.9" y1="55.2" x2="66.4" y2="77.8" stroke="#191512" stroke-width="1.3" stroke-opacity="0.38"/>
<line x1="32.3" y1="44.6" x2="49.8" y2="66.6" stroke="#191512" stroke-width="1.3" stroke-opacity="0.589"/>
<line x1="44.9" y1="72.0" x2="66.4" y2="77.8" stroke="#191512" stroke-width="1.3" stroke-opacity="0.327"/>
<line x1="73.3" y1="55.7" x2="49.8" y2="66.6" stroke="#191512" stroke-width="1.3" stroke-opacity="0.575"/>
<line x1="22.8" y1="66.1" x2="42.4" y2="81.7" stroke="#191512" stroke-width="1.3" stroke-opacity="0.463"/>
<line x1="66.4" y1="77.8" x2="42.4" y2="81.7" stroke="#191512" stroke-width="1.3" stroke-opacity="0.414"/>
<circle cx="62.3" cy="52.3" r="1.99" fill="#191512" opacity="0.471"/>
<circle cx="38.2" cy="37.8" r="2.06" fill="#191512" opacity="0.489"/>
<circle cx="44.9" cy="72.0" r="2.21" fill="#191512" opacity="0.525"/>
<circle cx="59.5" cy="24.4" r="2.4" fill="#191512" opacity="0.571"/>
<circle cx="21.0" cy="54.5" r="2.53" fill="#191512" opacity="0.6"/>
<circle cx="66.4" cy="77.8" r="2.82" fill="#191512" opacity="0.669"/>
<circle cx="81.9" cy="55.2" r="2.82" fill="#191512" opacity="0.67"/>
<circle cx="75.9" cy="29.6" r="3.06" fill="#191512" opacity="0.727"/>
<circle cx="42.4" cy="81.7" r="3.22" fill="#191512" opacity="0.765"/>
<circle cx="23.0" cy="31.8" r="3.23" fill="#191512" opacity="0.769"/>
<circle cx="45.6" cy="17.9" r="3.27" fill="#191512" opacity="0.776"/>
<circle cx="22.8" cy="66.1" r="3.38" fill="#191512" opacity="0.804"/>
<circle cx="73.3" cy="55.7" r="3.84" fill="#191512" opacity="0.914"/>
<circle cx="60.7" cy="31.9" r="4.39" fill="#d8533a" opacity="0.937"/>
<circle cx="32.3" cy="44.6" r="4.45" fill="#d8533a" opacity="0.952"/>
<circle cx="49.8" cy="66.6" r="4.49" fill="#d8533a" opacity="0.962"/>
</svg>
